{"title":"The Twilight Saga: Breaking Dawn - Part 2 (2012) CAMRip [Russian","uid":7835800,"size":735535104,"categoryP":"video","categoryS":"movies","magnet":"?xt=urn:btih:3c9b7a6129e8d16a227ea92fbf6eb0d69944f094&amp;dn=The+Twilight+Saga%3A+Breaking+Dawn+-+Part+2+%282012%29+CAMRip+%5BRussian&amp;tr=udp%3A%2F%2Ftracker.openbittorrent.com%3A80&amp;tr=udp%3A%2F%2Fopen.demonii.com%3A1337&amp;tr=udp%3A%2F%2Ftracker.coppersurfer.tk%3A6969&amp;tr=udp%3A%2F%2Fexodus.desync.com%3A6969","seeders":2,"leechers":0,"uploader":"yfjfrj","files":-1,"time":1353185760,"description":"                        WARNING: Russian audio ONLY!!!!!!!!!\n\n\nAfter the birth of Renesmee, the Cullens gather other vampire clans in order to protect the child from a false allegation that puts the family in front of the Volturi.\n &lt;a href=&quot;\nhttp://www.imdb.com/title/tt1673434/&quot; rel=&quot;nofollow&quot; target=&quot;_NEW&quot;&gt;\nhttp://www.imdb.com/title/tt1673434/&lt;/a&gt;\n\nMediaInfo 0.7.61:\nGeneral\nFormat                                   : AVI\nFormat/Info                              : Audio Video Interleave\nFile size                                : 701 MiB\nDuration                                 : 1h 44mn\nOverall bit rate                         : 940 Kbps\nWriting application                      : VirtualDubMod 1.5.10.2 (build 2540/release)\nWriting library                          : VirtualDubMod build 2540/release\n\nVideo\nID                                       : 0\nFormat                                   : MPEG-4 Visual\nFormat profile                           : Advanced Simple@L5\nFormat settings, BVOP                    : 2\nFormat settings, QPel                    : No\nFormat settings, GMC                     : No warppoints\nFormat settings, Matrix                  : Default (MPEG)\nMuxing mode                              : Packed bitstream\nCodec ID                                 : XVID\nCodec ID/Hint                            : XviD\nDuration                                 : 1h 44mn\nBit rate                                 : 802 Kbps\nWidth                                    : 720 pixels\nHeight                                   : 272 pixels\nDisplay aspect ratio                     : 2.647\nFrame rate                               : 23.976 fps\nColor space                              : YUV\nChroma subsampling                       : 4:2:0\nBit depth                                : 8 bits\nScan type                                : Progressive\nCompression mode                         : Lossy\nBits/(Pixel*Frame)                       : 0.171\nStream size                              : 599 MiB (85%)\nWriting library                          : XviD 73\n\nAudio\nID                                       : 1\nFormat                                   : MPEG Audio\nFormat version                           : Version 1\nFormat profile                           : Layer 3\nMode                                     : Dual mono\nCodec ID                                 : 55\nCodec ID/Hint                            : MP3\nDuration                                 : 1h 44mn\nBit rate mode                            : Constant\nBit rate                                 : 128 Kbps\nChannel(s)                               : 2 channels\nSampling rate                            : 48.0 KHz\nCompression mode                         : Lossy\nStream size                              : 95.5 MiB (14%)\nAlignment                                : Aligned on interleaves\nInterleave, duration                     : 42 ms (1.00 video frame)\nInterleave, preload duration             : 504 ms\n\n\nscreens: &lt;a href=&quot;\nhttp://img811.imageshack.us/img811/9036/grabzv.png&quot; rel=&quot;nofollow&quot; target=&quot;_NEW&quot;&gt;\nhttp://img811.imageshack.us/img811/9036/grabzv.png&lt;/a&gt; &lt;a href=&quot;\nhttp://img838.imageshack.us/img838/6702/grab2e.png&quot; rel=&quot;nofollow&quot; target=&quot;_NEW&quot;&gt;\nhttp://img838.imageshack.us/img838/6702/grab2e.png&lt;/a&gt; &lt;a href=&quot;\nhttp://img87.imageshack.us/img87/1126/grab3r.png&quot; rel=&quot;nofollow&quot; target=&quot;_NEW&quot;&gt;\nhttp://img87.imageshack.us/img87/1126/grab3r.png&lt;/a&gt; &lt;a href=&quot;\nhttp://img585.imageshack.us/img585/6310/grab4a.png&quot; rel=&quot;nofollow&quot; target=&quot;_NEW&quot;&gt;\nhttp://img585.imageshack.us/img585/6310/grab4a.png&lt;/a&gt; &lt;a href=&quot;\nhttp://img27.imageshack.us/img27/8682/grab5r.png&quot; rel=&quot;nofollow&quot; target=&quot;_NEW&quot;&gt;\nhttp://img27.imageshack.us/img27/8682/grab5r.png&lt;/a&gt; &lt;a href=&quot;\nhttp://img267.imageshack.us/img267/8770/grab6v.png&quot; rel=&quot;nofollow&quot; target=&quot;_NEW&quot;&gt;\nhttp://img267.imageshack.us/img267/8770/grab6v.png&lt;/a&gt; &lt;a href=&quot;\nhttp://img4.imageshack.us/img4/6718/grab7ge.png&quot; rel=&quot;nofollow&quot; target=&quot;_NEW&quot;&gt;\nhttp://img4.imageshack.us/img4/6718/grab7ge.png&lt;/a&gt; &lt;a href=&quot;\nhttp://img641.imageshack.us/img641/7276/grab8p.png&quot; rel=&quot;nofollow&quot; target=&quot;_NEW&quot;&gt;\nhttp://img641.imageshack.us/img641/7276/grab8p.png&lt;/a&gt;\n\nsample:\n\n","torrent":{"xt":"urn:btih:3c9b7a6129e8d16a227ea92fbf6eb0d69944f094","amp;dn":"The+Twilight+Saga%3A+Breaking+Dawn+-+Part+2+%282012%29+CAMRip+%5BRussian","amp;tr":["udp%3A%2F%2Ftracker.openbittorrent.com%3A80","udp%3A%2F%2Fopen.demonii.com%3A1337","udp%3A%2F%2Ftracker.coppersurfer.tk%3A6969","udp%3A%2F%2Fexodus.desync.com%3A6969"],"infoHash":"3c9b7a6129e8d16a227ea92fbf6eb0d69944f094","infoHashBuffer":{"type":"Buffer","data":[60,155,122,97,41,232,209,106,34,126,169,47,191,110,176,214,153,68,240,148]},"announce":[],"urlList":[]}}